<svg xmlns="http://www.w3.org/2000/svg" xmlns:xlink="http://www.w3.org/1999/xlink" xmlns:svgjs="http://svgjs.dev/svgjs" width="164" height="50" viewBox="0 0 2000 484"><g transform="matrix(1,0,0,1,-1.2121212121212466,-0.899383127119961)"><svg viewBox="0 0 396 96" data-background-color="#ffffff" preserveAspectRatio="xMidYMid meet" height="484" width="2000" xmlns="http://www.w3.org/2000/svg" xmlns:xlink="http://www.w3.org/1999/xlink"><g id="tight-bounds" transform="matrix(1,0,0,1,0.2400000000000091,0.1783900417428015)"><svg viewBox="0 0 395.52 95.64321991651441" height="95.64321991651441" width="395.52"><g><svg viewBox="0 0 541.6133739771655 130.97099271092083" height="95.64321991651441" width="395.52"><g transform="matrix(1,0,0,1,146.09337397716547,33.45686729904504)"><svg viewBox="0 0 395.52 64.05725811283075" height="64.05725811283075" width="395.52"><g id="textblocktransform"><svg viewBox="0 0 395.52 64.05725811283075" height="64.05725811283075" width="395.52" id="textblock"><g><svg viewBox="0 0 395.52 64.05725811283075" height="64.05725811283075" width="395.52"><g transform="matrix(1,0,0,1,0,0)"><svg width="395.52" viewBox="1.9499999999999997 -39.11 244.48000000000002 39.6" height="64.05725811283075" data-palette-color="#2cb1bc"><path d="M15.65 0.49L15.65 0.49Q12.13 0.49 9.56-0.55 6.98-1.59 5.3-3.34 3.61-5.1 2.78-7.41 1.95-9.72 1.95-12.26L1.95-12.26Q1.95-15.23 3.04-17.81 4.13-20.39 6.14-22.29 8.15-24.19 11.01-25.28 13.87-26.37 17.43-26.37L17.43-26.37Q20.87-26.37 23.45-25.35 26.03-24.34 27.73-22.6 29.44-20.85 30.3-18.53 31.15-16.21 31.15-13.6L31.15-13.6Q31.15-10.55 30.04-7.96 28.93-5.37 26.89-3.49 24.85-1.61 22-0.56 19.14 0.49 15.65 0.49ZM16.7-5.27L16.7-5.27Q17.63-5.27 18.44-5.69 19.26-6.1 19.86-7.01 20.46-7.91 20.8-9.29 21.14-10.67 21.14-12.62L21.14-12.62Q21.14-14.43 20.83-15.91 20.51-17.38 19.91-18.42 19.31-19.46 18.42-20.03 17.53-20.61 16.41-20.61L16.41-20.61Q14.43-20.61 13.2-18.77 11.96-16.94 11.96-13.21L11.96-13.21Q11.96-11.28 12.3-9.8 12.65-8.33 13.27-7.31 13.89-6.3 14.76-5.79 15.63-5.27 16.7-5.27ZM46.04-1.12L46.04-39.11 55.81-39.11 55.81-22.46Q56.73-23.17 57.75-23.88 58.76-24.58 59.86-25.13 60.96-25.68 62.14-26.03 63.33-26.37 64.62-26.37L64.62-26.37Q66.84-26.37 68.62-25.34 70.41-24.32 71.66-22.6 72.92-20.87 73.59-18.64 74.26-16.41 74.26-14.01L74.26-14.01Q74.26-10.96 73.16-8.33 72.07-5.69 69.94-3.72 67.82-1.76 64.67-0.63 61.52 0.49 57.42 0.49L57.42 0.49Q56.42 0.49 55.1 0.4 53.78 0.32 52.28 0.13 50.78-0.05 49.19-0.35 47.6-0.66 46.04-1.12L46.04-1.12ZM55.81-19.04L55.81-5.96Q56.66-5.59 57.39-5.43 58.12-5.27 58.76-5.27L58.76-5.27Q60.15-5.27 61.18-5.94 62.2-6.62 62.89-7.73 63.57-8.84 63.91-10.25 64.25-11.67 64.25-13.13L64.25-13.13Q64.25-14.62 63.91-15.91 63.57-17.19 62.91-18.1 62.25-19.02 61.27-19.54 60.3-20.07 59.03-20.07L59.03-20.07Q58.37-20.07 57.55-19.87 56.73-19.68 55.81-19.04L55.81-19.04ZM99.79 0L89.88 0 89.88-35.77 99.79-35.77 99.79-21.34 113.12-21.34 113.12-35.77 123.04-35.77 123.04 0 113.12 0 113.12-15.5 99.79-15.5 99.79 0ZM140.12-8.4L140.12-25.88 149.89-25.88 149.89-9.81Q149.89-7.93 150.78-6.87 151.67-5.81 153.06-5.81L153.06-5.81Q154.01-5.81 154.93-6.32 155.84-6.84 156.77-7.62L156.77-7.62 156.77-25.88 166.54-25.88 166.54 0 158.19 0 157.07-4.15Q156.19-3.37 155.17-2.55 154.16-1.73 153.04-1.06 151.91-0.39 150.69 0.05 149.47 0.49 148.18 0.49L148.18 0.49Q146.74 0.49 145.31-0.04 143.88-0.56 142.72-1.65 141.56-2.73 140.84-4.41 140.12-6.08 140.12-8.4L140.12-8.4ZM182.89 0L182.89-25.88 191.24-25.88 192.36-21.73Q193.19-22.41 194.21-23.23 195.22-24.05 196.39-24.74 197.56-25.44 198.91-25.9 200.25-26.37 201.74-26.37L201.74-26.37Q203.54-26.37 205.05-25.74 206.55-25.12 207.62-23.96 208.7-22.8 209.29-21.17 209.89-19.53 209.89-17.53L209.89-17.53 209.89 0 200.13 0 200.13-16.06Q200.13-17.04 199.86-17.8 199.59-18.55 199.11-19.06 198.64-19.56 198.01-19.81 197.39-20.07 196.71-20.07L196.71-20.07Q195.61-20.07 194.6-19.53 193.58-18.99 192.66-18.26L192.66-18.26 192.66 0 182.89 0ZM228.25-9.18L228.25-20.12 223.07-20.12 223.66-24.12Q224.98-24.63 225.93-25.07 226.88-25.51 227.61-25.99 228.34-26.46 228.91-27.03 229.47-27.59 230-28.34 230.54-29.1 231.12-30.09 231.69-31.08 232.45-32.42L232.45-32.42 237.33-32.42 237.33-25.88 246.41-25.88 245.14-20.12 238.01-20.12 238.01-10.21Q238.01-7.76 239.25-6.79 240.48-5.81 242.87-5.81L242.87-5.81Q243.73-5.81 244.64-5.94 245.56-6.08 246.43-6.45L246.43-6.45 246.43-2.49Q244.41-0.95 241.92-0.23 239.43 0.49 236.99 0.49L236.99 0.49Q234.55 0.49 232.87-0.2 231.2-0.88 230.18-2.14 229.15-3.39 228.7-5.18 228.25-6.96 228.25-9.18L228.25-9.18Z" opacity="1" transform="matrix(1,0,0,1,0,0)" fill="#2cb1bc" class="wordmark-text-0" data-fill-palette-color="primary" id="text-0"></path></svg></g></svg></g></svg></g></svg></g><g><svg viewBox="0 0 130.97099271092083 130.97099271092083" height="130.97099271092083" width="130.97099271092083"><g><svg></svg></g><g id="icon-0"><svg viewBox="0 0 130.97099271092083 130.97099271092083" height="130.97099271092083" width="130.97099271092083"><g><rect width="119.0865878167817" height="119.0865878167817" x="5.942202447069562" y="5.942202447069562" fill="#2cb1bc" data-fill-palette-color="accent"></rect><rect width="119.0865878167817" height="119.0865878167817" x="11.884404894139116" y="7.105427357601002e-15" fill="#2cb1bc" opacity="0.5" data-fill-palette-color="accent"></rect></g><g transform="matrix(1,0,0,1,43.459972951200456,16.977721277341594)"><svg viewBox="0 0 44.05104680851992 97.01555015623764" height="97.01555015623764" width="44.05104680851992"><g><svg xmlns="http://www.w3.org/2000/svg" xmlns:xlink="http://www.w3.org/1999/xlink" version="1.1" x="0" y="0" viewBox="29.64899999999999 5.179 40.70300000000002 89.642" enable-background="new 0 0 100 100" xml:space="preserve" height="97.01555015623764" width="44.05104680851992" class="icon-cg-0" data-fill-palette-color="quaternary" id="cg-0"><path d="M70.352 10.451c0-2.956-1.85-5.272-4.212-5.272-2.362 0-4.212 2.316-4.212 5.272 0 2.266 1.088 4.155 2.66 4.914v60.287c0 4.212-1.64 8.172-4.619 11.15-2.978 2.978-6.938 4.619-11.15 4.619-8.695 0-15.769-7.074-15.769-15.769l0-2.621c0.406 0.278 0.871 0.552 1.404 0.818 1.694 0.847 3.37 1.271 3.44 1.288-4.424-4.549-4.259-21.197-5.14-21.123-0.881 0.074-3.105 21.637-3.105 21.637 0 10.57 8.6 19.17 19.17 19.17 5.121 0 9.935-1.994 13.555-5.615 3.621-3.621 5.615-8.435 5.615-13.555V15.206C69.399 14.363 70.352 12.572 70.352 10.451zM66.14 8.27c0.446 0 1.12 0.87 1.12 2.18s-0.674 2.18-1.12 2.18-1.12-0.87-1.12-2.18S65.694 8.27 66.14 8.27z" fill="#ffffff" data-fill-palette-color="quaternary"></path></svg></g></svg></g></svg></g></svg></g></svg></g><defs></defs></svg><rect width="395.52" height="95.64321991651441" fill="none" stroke="none" visibility="hidden"></rect></g></svg></g></svg>