<svg xmlns="http://www.w3.org/2000/svg" xmlns:xlink="http://www.w3.org/1999/xlink" xmlns:svgjs="http://svgjs.dev/svgjs" width="164" height="50" viewBox="0 0 2000 570"><g transform="matrix(1,0,0,1,-1.2121212121212466,0.5287240933403723)"><svg viewBox="0 0 396 113" data-background-color="#ffffff" preserveAspectRatio="xMidYMid meet" height="570" width="2000" xmlns="http://www.w3.org/2000/svg" xmlns:xlink="http://www.w3.org/1999/xlink"><g id="tight-bounds" transform="matrix(1,0,0,1,0.2400000000000091,-0.10481723253940345)"><svg viewBox="0 0 395.52 113.20963446507882" height="113.20963446507882" width="395.52"><g><svg viewBox="0 0 581.030985213809 166.3084179028619" height="113.20963446507882" width="395.52"><g transform="matrix(1,0,0,1,185.51098521380902,42.48390084949105)"><svg viewBox="0 0 395.52 81.34061620387979" height="81.34061620387979" width="395.52"><g id="textblocktransform"><svg viewBox="0 0 395.52 81.34061620387979" height="81.34061620387979" width="395.52" id="textblock"><g><svg viewBox="0 0 395.52 81.34061620387979" height="81.34061620387979" width="395.52"><g transform="matrix(1,0,0,1,0,0)"><svg width="395.52" viewBox="2.12 -39.11 192.54999999999998 39.6" height="81.34061620387979" data-palette-color="#2cb1bc"><path d="M15.43 0.49L15.43 0.49Q12.08 0.49 9.58-0.55 7.08-1.59 5.42-3.33 3.76-5.08 2.94-7.39 2.12-9.69 2.12-12.23L2.12-12.23Q2.12-15.19 3.2-17.77 4.27-20.36 6.24-22.27 8.2-24.17 10.99-25.27 13.77-26.37 17.19-26.37L17.19-26.37Q20.51-26.37 23.01-25.34 25.51-24.32 27.17-22.58 28.83-20.85 29.68-18.52 30.52-16.19 30.52-13.6L30.52-13.6Q30.52-10.57 29.42-8 28.32-5.42 26.33-3.53 24.34-1.64 21.57-0.57 18.8 0.49 15.43 0.49ZM16.48-4.76L16.48-4.76Q17.63-4.76 18.59-5.25 19.56-5.74 20.26-6.73 20.97-7.71 21.37-9.18 21.78-10.64 21.78-12.6L21.78-12.6Q21.78-14.43 21.4-15.99 21.02-17.55 20.3-18.69 19.58-19.82 18.54-20.47 17.5-21.12 16.16-21.12L16.16-21.12Q14.99-21.12 14.01-20.59 13.04-20.07 12.34-19.07 11.65-18.07 11.25-16.6 10.86-15.14 10.86-13.23L10.86-13.23Q10.86-11.3 11.25-9.74 11.65-8.18 12.38-7.07 13.11-5.96 14.15-5.36 15.19-4.76 16.48-4.76ZM36.3-1.12L36.3-39.11 44.77-39.11 44.77-22.27Q45.75-23.05 46.79-23.79 47.82-24.54 48.94-25.11 50.05-25.68 51.24-26.03 52.44-26.37 53.76-26.37L53.76-26.37Q56.03-26.37 57.83-25.33 59.64-24.29 60.9-22.57 62.16-20.85 62.84-18.62 63.52-16.38 63.52-13.96L63.52-13.96Q63.52-10.94 62.45-8.3 61.37-5.66 59.27-3.71 57.18-1.76 54.1-0.63 51.02 0.49 47.04 0.49L47.04 0.49Q46.04 0.49 44.79 0.4 43.53 0.32 42.12 0.13 40.72-0.05 39.24-0.35 37.77-0.66 36.3-1.12L36.3-1.12ZM44.77-18.92L44.77-5.59Q45.8-5.15 46.73-4.96 47.65-4.76 48.44-4.76L48.44-4.76Q50.02-4.76 51.22-5.47 52.41-6.18 53.21-7.34 54-8.5 54.4-10 54.81-11.5 54.81-13.09L54.81-13.09Q54.81-14.65 54.43-16.03 54.05-17.41 53.32-18.43 52.59-19.46 51.52-20.06 50.46-20.65 49.07-20.65L49.07-20.65Q48.19-20.65 47.1-20.3 46.02-19.95 44.77-18.92L44.77-18.92ZM78.73 0L70.11 0 70.11-35.77 78.73-35.77 78.73-21.14 93.55-21.14 93.55-35.77 102.17-35.77 102.17 0 93.55 0 93.55-15.82 78.73-15.82 78.73 0ZM110.25-8.47L110.25-25.88 118.72-25.88 118.72-9.72Q118.72-8.69 118.99-7.85 119.26-7.01 119.74-6.42 120.23-5.83 120.9-5.52 121.57-5.2 122.38-5.2L122.38-5.2Q123.63-5.2 124.76-5.9 125.9-6.59 126.92-7.57L126.92-7.57 126.92-25.88 135.39-25.88 135.39 0 128.24 0 127.19-4.22Q126.31-3.44 125.3-2.6 124.28-1.76 123.15-1.07 122.01-0.39 120.78 0.05 119.55 0.49 118.21 0.49L118.21 0.49Q116.72 0.49 115.29-0.07 113.86-0.63 112.74-1.75 111.61-2.86 110.93-4.54 110.25-6.23 110.25-8.47L110.25-8.47ZM142.67 0L142.67-25.88 149.82-25.88 150.84-21.63Q151.67-22.36 152.71-23.19 153.75-24.02 154.96-24.73 156.17-25.44 157.53-25.9 158.9-26.37 160.39-26.37L160.39-26.37Q162.2-26.37 163.67-25.72 165.15-25.07 166.21-23.9 167.28-22.73 167.86-21.08 168.45-19.43 168.45-17.43L168.45-17.43 168.45 0 159.95 0 159.95-16.21Q159.95-17.31 159.65-18.14 159.34-18.97 158.82-19.53 158.29-20.09 157.58-20.37 156.87-20.65 156.07-20.65L156.07-20.65Q154.73-20.65 153.52-20 152.31-19.34 151.14-18.33L151.14-18.33 151.14 0 142.67 0ZM177.55-8.5L177.55-20.63 172.35-20.63 172.89-24.22Q174.18-24.68 175.13-25.1 176.09-25.51 176.81-25.99 177.53-26.46 178.08-27.03 178.63-27.59 179.13-28.36 179.63-29.13 180.14-30.1 180.65-31.08 181.31-32.4L181.31-32.4 185.51-32.4 185.51-25.88 194.67-25.88 193.47-20.63 186.02-20.63 186.02-9.57Q186.02-7.15 187.28-6.18 188.54-5.2 190.88-5.2L190.88-5.2Q191.81-5.2 192.77-5.36 193.74-5.52 194.64-5.88L194.64-5.88 194.64-2.25Q192.74-0.85 190.45-0.18 188.17 0.49 185.9 0.49L185.9 0.49Q183.65 0.49 182.07-0.13 180.48-0.76 179.48-1.93 178.48-3.1 178.01-4.76 177.55-6.42 177.55-8.5L177.55-8.5Z" opacity="1" transform="matrix(1,0,0,1,0,0)" fill="#2cb1bc" class="wordmark-text-0" data-fill-palette-color="primary" id="text-0"></path></svg></g></svg></g></svg></g></svg></g><g><svg viewBox="0 0 166.3084179028619 166.3084179028619" height="166.3084179028619" width="166.3084179028619"><g><svg></svg></g><g id="icon-0"><svg viewBox="0 0 166.3084179028619 166.3084179028619" height="166.3084179028619" width="166.3084179028619"><g><rect width="151.21746887093553" height="151.21746887093553" x="7.545474515963178" y="7.545474515963178" fill="#2cb1bc" data-fill-palette-color="accent"></rect><rect width="151.21746887093553" height="151.21746887093553" x="15.090949031926355" y="1.7763568394002505e-15" fill="#2cb1bc" opacity="0.5" data-fill-palette-color="accent"></rect></g><g transform="matrix(1,0,0,1,55.185955256278994,21.558498617037657)"><svg viewBox="0 0 55.9365073903039 123.19142066878658" height="123.19142066878658" width="55.9365073903039"><g><svg xmlns="http://www.w3.org/2000/svg" xmlns:xlink="http://www.w3.org/1999/xlink" version="1.1" x="0" y="0" viewBox="29.64899999999999 5.179 40.70300000000002 89.642" enable-background="new 0 0 100 100" xml:space="preserve" height="123.19142066878658" width="55.9365073903039" class="icon-cg-0" data-fill-palette-color="quaternary" id="cg-0"><path d="M70.352 10.451c0-2.956-1.85-5.272-4.212-5.272-2.362 0-4.212 2.316-4.212 5.272 0 2.266 1.088 4.155 2.66 4.914v60.287c0 4.212-1.64 8.172-4.619 11.15-2.978 2.978-6.938 4.619-11.15 4.619-8.695 0-15.769-7.074-15.769-15.769l0-2.621c0.406 0.278 0.871 0.552 1.404 0.818 1.694 0.847 3.37 1.271 3.44 1.288-4.424-4.549-4.259-21.197-5.14-21.123-0.881 0.074-3.105 21.637-3.105 21.637 0 10.57 8.6 19.17 19.17 19.17 5.121 0 9.935-1.994 13.555-5.615 3.621-3.621 5.615-8.435 5.615-13.555V15.206C69.399 14.363 70.352 12.572 70.352 10.451zM66.14 8.27c0.446 0 1.12 0.87 1.12 2.18s-0.674 2.18-1.12 2.18-1.12-0.87-1.12-2.18S65.694 8.27 66.14 8.27z" fill="#ffffff" data-fill-palette-color="quaternary"></path></svg></g></svg></g></svg></g></svg></g></svg></g><defs></defs></svg><rect width="395.52" height="113.20963446507882" fill="none" stroke="none" visibility="hidden"></rect></g></svg></g></svg>